<?xml version="1.0" encoding="UTF-8"?>
<svg id="Capa_1" data-name="Capa 1" xmlns="http://www.w3.org/2000/svg" viewBox="0 0 484.25 229.14">
  <defs>
    <style>
      .cls-1 {
        fill: #ffb400;
        stroke-width: 0px;
        
      }

      .cls-2, .cls-3 {
        fill: #8b0000;
        animation: change 5s linear infinite;
      }

      .cls-3 {
        stroke-width: 2px;
      
      }

       @keyframes change{
        0%{
           fill: #ffb400;
        
        }
        50%{

           fill: #8b0000;
           
        }
        100%{
          fill: #ffb400;
        }
      }
    </style>
  </defs>
  <path class="cls-1" d="M36.64,68.71l31.27-4.48c8.17-1.17,14.31-1.65,18.43-1.45,10.19.48,18.41,4.73,24.67,12.75,4.92,6.31,7.37,13.69,7.37,22.13s-2.53,16.79-7.61,24.57c-6.11,9.4-14.07,15.83-23.9,19.3-2.53.88-4.8,1.52-6.78,1.92-1.98.4-6.34,1.09-13.08,2.05l-30.2,4.33.18-39.27-.36-41.86ZM73.03,67.29l-.36,47.85.36,25.69c5.31-.8,9.13-1.56,11.44-2.27,2.32-.71,4.99-1.93,8-3.67,7.09-4.07,12.66-9.78,16.71-17.14,3.53-6.33,5.29-12.89,5.29-19.66,0-7.37-2.08-13.85-6.23-19.44-7.4-9.92-18.37-13.84-32.89-11.75l-2.31.39Z"/>
  <path class="cls-1" d="M158.7,67.44v1.72l-.12,9.29-.12,14.41-.18,21.91.24,12.27.12,5.33-30.56,4.38.3-21.92.18-19.35-.12-10.15-.18-11.27.06-2.27,30.38-4.36Z"/>
  <path class="cls-3" d="M406.34,29.54c0,4.28-1.38,7.96-4.12,11-2.76,3.04-6.64,5.15-11.63,6.31-1.06.24-2.05.43-2.98.55,2.37-.69,4.36-1.6,5.97-2.7,2.76-1.89,4.14-4.14,4.14-6.8,0-1.18-.24-2.21-.75-3.06-1.87.61-4,1.08-6.37,1.42-7.75,1.12-12.48.08-14.19-3.1-.12-.2-.2-.41-.28-.63-.3-.75-.45-1.6-.45-2.58,0-5.38,4.99-8.83,14.98-10.35,2.25-.32,4.26-.49,6.03-.49,5.6,0,8.77,2.64,9.5,7.89.1.77.16,1.62.16,2.54Z"/>
  <path class="cls-1" d="M196.52,96.38v18.43c0,3.57.22,5.79.65,6.68.83,1.7,2.8,2.33,5.89,1.89,4.6-.66,9.15-2.57,13.64-5.73,4.5-3.16,8.39-7.2,11.68-12.11,1.07-1.62,1.84-2.66,2.32-3.13.48-.46.99-.74,1.55-.82.67-.1,1.23.07,1.66.5.44.43.65,1.03.65,1.78,0,1.66-1.33,4.09-3.98,7.29-3.49,4.11-7.82,7.66-12.99,10.66-5.17,3-10.22,4.85-15.13,5.56-8.44,1.21-15.9-.55-22.36-5.3-3.77-2.79-6.66-6.48-8.68-11.06-1.78-4.03-2.68-8.18-2.68-12.46s.79-8.37,2.38-12.74c1.59-4.37,3.76-8.26,6.54-11.67,3.21-3.99,7.01-7.27,11.42-9.84,4.32-2.52,8.84-4.12,13.56-4.8,7.33-1.05,13.97.16,19.92,3.62,9.28,5.41,13.87,14.52,13.79,27.33l-13.85,1.99-17.84,2.62-8.15,1.29ZM211.74,90.27v-17.33c-.08-3.71-.16-5.92-.24-6.64-.08-.72-.36-1.36-.83-1.93-1.11-1.38-3.37-1.83-6.78-1.34-3.49.5-5.67,1.7-6.54,3.61-.56,1.15-.83,3.98-.83,8.48v17.33l7.25-.8,7.97-1.38Z"/>
  <path class="cls-1" d="M291.88,50.9c3.41,1.18,6.26,2.97,8.56,5.37,3.05,3.25,4.58,7.29,4.58,12.13,0,3.45-.87,6.84-2.62,10.19-1.74,3.34-4.18,6.29-7.31,8.84-5.79,4.75-12.77,7.72-20.93,8.89-3.77.54-7.24.7-10.41.48s-6.06-.82-8.68-1.79c-1.86,1.53-2.79,2.96-2.79,4.26,0,1.55,1.05,2.31,3.15,2.28,4.56-.06,7.69-.33,9.39-.81l.36-.11,17.78-2.55.89-.19c5.94-1.21,10.22-.83,12.84,1.13,2.02,1.57,3.03,3.61,3.03,6.11,0,2.1-.71,4.11-2.14,6.01-2.38,3.16-5.59,5.02-9.63,5.6-.75.11-1.7.2-2.85.29.63-1.08.95-1.9.95-2.46,0-1.23-1.11-1.68-3.33-1.37-1.9.27-5.89,1.26-11.95,2.96-4.24,1.2-7.75,2-10.52,2.4-4.36.63-8.15.24-11.36-1.17-1.86-.8-3.33-2.06-4.4-3.77-1.07-1.71-1.6-3.65-1.6-5.83,0-2.46.64-4.8,1.93-7.02,1.29-2.23,3.44-4.69,6.45-7.38-2.81-1.38-4.99-3.4-6.54-6.05-1.55-2.65-2.32-5.66-2.32-9.03,0-8.01,4.02-14.96,12.07-20.87,6.02-4.43,13.34-7.26,21.94-8.5,1.9-.27,3.88-.46,5.95-.56,2.81-.16,4.86-.34,6.12-.52,3.13-.45,5.41-2.16,6.84-5.14.83-1.78,1.72-2.74,2.68-2.88.75-.11,1.4.05,1.96.46.55.42.83.98.83,1.69,0,1.43-.79,2.94-2.38,4.53s-3.77,3.05-6.54,4.36ZM268.52,60.79v25.15c0,3.01.24,4.84.71,5.49.79,1.04,2.44,1.37,4.94,1.02,2.3-.33,3.83-1.09,4.61-2.3s1.16-3.41,1.16-6.62v-24.26c0-2.7-.39-4.44-1.16-5.24s-2.29-1.04-4.55-.72-3.78,1-4.55,2.02-1.16,2.84-1.16,5.46Z"/>
  <path class="cls-1" d="M343.73,39.3c6.38-.91,12.43-.02,18.13,2.69,5.27,2.5,9.29,6.36,12.07,11.59,2.46,4.6,3.69,9.68,3.69,15.23,0,3.81-.72,7.73-2.17,11.79-1.45,4.05-3.42,7.74-5.92,11.07-3.49,4.58-7.75,8.27-12.78,11.05-4.12,2.3-8.42,3.76-12.9,4.41-7.49,1.07-14.23-.18-20.22-3.76-4.68-2.74-8.22-6.61-10.64-11.61-2.02-4.23-3.03-8.86-3.03-13.89,0-9.83,3.57-18.51,10.7-26.03,6.7-6.99,14.39-11.16,23.07-12.52ZM342,43.36l-.18,60.02c1.23-.1,2.08-.18,2.56-.25,5.51-.79,10.78-3.09,15.82-6.91,4.84-3.71,8.46-8.24,10.88-13.58,1.9-4.24,2.85-8.74,2.85-13.5,0-9.56-3.53-16.81-10.59-21.75-5.71-3.98-11.91-5.49-18.61-4.53-.55.08-1.47.25-2.73.51Z"/>
  <path class="cls-1" d="M416.32,84.43c.79-.11,1.8.34,3.03,1.36,1.98,1.59,4.8,2.8,8.44,3.61s7.05.99,10.23.54c1.47-.21,2.57-.62,3.3-1.22.73-.6,1.1-1.39,1.1-2.34s-.51-2.03-1.52-3.23c-1.01-1.19-3.26-3.42-6.75-6.69-8.52-7.9-14.04-13.52-16.56-16.86s-3.78-6.72-3.78-10.13c0-2.97.86-5.94,2.59-8.9,1.72-2.96,4.13-5.62,7.22-7.96,5.11-3.9,10.98-6.33,17.6-7.28,4.87-.7,10.03-.41,15.46.87,4.24,1.02,6.36,2.48,6.36,4.38,0,.59-.25,1.16-.74,1.71-.5.55-1.06.87-1.69.96-.76.11-2.16-.42-4.22-1.59-4.2-2.41-8.78-3.26-13.73-2.55-1.74.25-3.06.72-3.95,1.4-.89.68-1.34,1.6-1.34,2.75,0,1.35.82,2.93,2.47,4.76s4.98,4.83,10.02,9.03c4.91,4.09,8.04,6.79,9.36,8.08s2.61,2.83,3.83,4.59c2.1,3.03,3.15,6.48,3.15,10.37,0,6.1-2.95,11.46-8.86,16.07-4.84,3.82-10.78,6.24-17.84,7.25-7.85,1.13-14.8.38-20.87-2.24-1.78-.81-3-1.51-3.66-2.09-.65-.58-.98-1.27-.98-2.06,0-1.47.77-2.33,2.32-2.59Z"/>
  <path class="cls-1" d="M87.43,176.38l42.91-6.15.71,18.16-2.46.35c-1.09-6.12-2.63-9.99-4.6-11.61-2.26-1.89-5.48-2.53-9.67-1.93l-8.45,1.21c-.83.12-1.44.4-1.82.85-.38.45-.57,1.06-.57,1.85v19.09l4.53-.65c2.52-.36,4.53-1.48,6.03-3.36,1.5-1.88,2.31-4.56,2.42-8.05l2.57-.37v23.79l-2.57.37c-.17-3.92-.98-6.63-2.42-8.11-1.45-1.48-3.46-2.04-6.03-1.67l-4.53.65v20.12c0,1.19.29,1.99.86,2.39.57.41,1.56.51,2.96.31l5.49-.79v2.68l-25.36,3.64v-2.68l5.42-.78c1.09-.16,1.87-.49,2.34-1,.46-.51.69-1.26.69-2.26v-41.95c0-.95-.24-1.59-.73-1.93-.49-.33-1.34-.41-2.55-.24l-5.17.74v-2.68Z"/>
  <path class="cls-1" d="M135.09,169.55l24.33-3.49v2.68l-4.17.6c-1.86.27-3.03.67-3.51,1.2-.49.53-.73,1.55-.73,3.05v39.95c0,1.59.21,2.56.64,2.9.57.46,1.61.59,3.1.38l4.68-.67v2.68l-24.33,3.49v-2.68l4.6-.66c1.62-.23,2.66-.62,3.14-1.16.47-.54.71-1.61.71-3.21v-39.95c0-1.52-.21-2.43-.64-2.73-.67-.45-1.89-.55-3.68-.29l-4.14.59v-2.68Z"/>
  <path class="cls-1" d="M163.98,165.41l27.25-3.91c5.28-.76,9.38-.14,12.29,1.84,2.91,1.98,4.37,4.93,4.37,8.83,0,2.33-.58,4.49-1.73,6.47s-2.82,3.67-5,5.07c-2.18,1.39-5.59,2.66-10.25,3.81,3.39.44,5.73,1.02,7.01,1.72,1.28.71,2.3,1.72,3.08,3.02.77,1.3,1.66,4.06,2.67,8.27.72,3.01,1.49,5.03,2.3,6.06.62.79,1.29,1.14,2,1.03.74-.11,1.42-.74,2.05-1.92.63-1.17,1.02-3.14,1.16-5.89l2.43-.35c-.45,8.15-3.44,12.62-8.96,13.41-1.74.25-3.24.02-4.51-.67-1.27-.7-2.23-1.86-2.87-3.48-.5-1.21-1.06-4.5-1.68-9.86-.36-3.11-.92-5.28-1.7-6.5-.77-1.22-1.98-2.12-3.62-2.69-1.64-.57-3.6-.7-5.89-.37l-4.32.62v20.73c0,.88.23,1.47.68,1.76.57.37,1.46.47,2.68.29l5.07-.73v2.68l-24.51,3.51v-2.68l5.17-.74c1.14-.16,1.98-.51,2.51-1.04.54-.53.8-1.19.8-1.97v-42.17c0-.9-.27-1.54-.82-1.92-.55-.37-1.38-.48-2.5-.32l-5.17.74v-2.68ZM180.07,187.36l6.24-.9c4.18-.6,7.46-1.86,9.83-3.78,2.37-1.92,3.55-4.89,3.55-8.93,0-2.78-.45-4.91-1.34-6.4-.89-1.49-2.06-2.42-3.51-2.81-1.45-.38-4.31-.27-8.56.34-2.81.4-4.54.85-5.21,1.33-.67.49-1,1.21-1,2.16v18.98Z"/>
  <path class="cls-1" d="M219.67,157.42l41.81-5.99,1,17.66-2.39.34c-.95-5.48-2.45-9.18-4.51-11.13-2.05-1.94-4.73-2.67-8.03-2.2l-10.33,1.48c-.83.12-1.46.44-1.89.95-.43.51-.64,1.23-.64,2.16v18.8l4.52-.65c2.42-.35,4.38-1.5,5.89-3.45,1.51-1.95,2.32-4.73,2.44-8.34l2.46-.35v24.44l-2.46.35c-.12-4.03-.94-6.8-2.47-8.33-1.53-1.53-3.61-2.1-6.24-1.73l-4.13.59v20.98c0,.76.26,1.31.77,1.64.51.33,1.36.41,2.55.24l8.16-1.17c8.86-1.27,13.96-7.66,15.32-19.18l2.57-.37-.89,19.78-43.48,6.23v-2.68l3.6-.52c1.4-.2,2.39-.59,2.96-1.16.57-.57.86-1.32.86-2.25v-41.81c0-.93-.25-1.58-.75-1.96-.5-.38-1.29-.49-2.35-.34l-4.32.62v-2.68Z"/>
  <path class="cls-1" d="M290.77,147.23l26.03-3.73c5.88-.84,10.36-.15,13.46,2.07,3.09,2.22,4.64,5.48,4.64,9.79s-1.42,7.79-4.27,10.46c-3.92,3.68-8.75,5.93-14.5,6.75l-9.4,1.35v18.02c0,1.05.25,1.76.75,2.14.66.48,1.56.63,2.67.47l5.99-.86v2.68l-25.36,3.64v-2.68l5.3-.76c1.05-.15,1.82-.47,2.31-.96.49-.49.74-1.09.74-1.8v-42.06c0-1.07-.31-1.8-.93-2.18-.62-.39-1.79-.46-3.51-.21l-3.9.56v-2.68ZM306.71,171.31l7.16-1.03c4.53-.65,7.8-2.07,9.81-4.24,2.01-2.18,3.01-5.44,3.01-9.8,0-3.04-.45-5.32-1.35-6.82-.9-1.5-2.23-2.52-3.97-3.05-1.74-.54-4.61-.52-8.6.06-2.64.38-4.3.87-5,1.47-.7.6-1.05,1.52-1.05,2.75v20.65Z"/>
  <path class="cls-1" d="M339.39,140.26l24.33-3.49v2.68l-4.17.6c-1.86.27-3.03.67-3.51,1.2-.49.53-.73,1.55-.73,3.05v39.95c0,1.59.21,2.56.64,2.9.57.47,1.61.59,3.1.38l4.67-.67v2.68l-24.33,3.49v-2.68l4.6-.66c1.62-.23,2.66-.62,3.14-1.16s.71-1.61.71-3.21v-39.95c0-1.52-.21-2.43-.64-2.73-.67-.45-1.89-.55-3.67-.29l-4.14.59v-2.68Z"/>
  <path class="cls-1" d="M369.64,135.92l42.84-6.14,1.03,19.79-2.46.35c-1.62-11.49-5.86-16.75-12.73-15.76-1.38.2-2.33.57-2.84,1.12-.52.55-.77,1.37-.77,2.46v42.17c0,.86.25,1.45.75,1.78.5.33,1.32.42,2.46.25l5.32-.76v2.68l-24.51,3.51v-2.68l6.07-.87c.81-.12,1.42-.41,1.85-.87.43-.47.64-1.03.64-1.7v-42.77c0-.9-.28-1.55-.82-1.93-.55-.38-1.43-.49-2.64-.32-3.45.49-6.33,2.54-8.63,6.13-1.9,2.96-3.27,7.39-4.1,13.29l-2.6.37,1.14-20.11Z"/>
  <path class="cls-3" d="M0,174.53c98.36-15.93,224.32-35.32,323.19-50.28,20.15-2.93,73.73-11.28,93.18-13.85,18.56-1.73,37.71,5.09,50.88,18.31,12.04,11.88,18.74,29.67,16.6,46.32,0,0-1,0-1,0-1.23-10.64-4.43-20.9-10.15-29.85-10.93-17.71-30.94-29.55-51.91-28.87-4.45.01-11.35,1.22-15.85,1.85-10.13,1.51-69.4,10.14-80.91,11.82-86.12,12.52-205.46,29.41-291.47,41.18,0,0-32.42,4.36-32.42,4.36,0,0-.15-.99-.15-.99h0Z"/>
  <path class="cls-2" d="M155.92,55.66c2.22-2.99,3.59-6.56,4.24-10.23,1.36,4.41.82,9.38-1.47,13.38-.59,1.04-1.31,2.02-2.24,2.76-1.7,1.35-3.95,1.77-6.1,2.03-.61.07-1.25.14-1.84-.04-3.16-.96,1.77-2.8,2.63-3.36,1.85-1.21,3.47-2.77,4.79-4.55Z"/>
  <path class="cls-2" d="M132.71,60.91c-2.83-1.93-4.85-4.8-6.76-7.64-1.15,2.98-.64,6.51,1.17,9.15s4.83,4.36,8,4.77c1.66.21,5.24-.62,3.98-3.06-.47-.91-1.72-1.09-2.59-1.38-1.35-.46-2.61-1.02-3.79-1.83Z"/>
  <path class="cls-2" d="M141.67,59.69c4.41-.73,8.16-3.95,10.23-7.91,2.79-5.34,2.78-11.76,5.26-17.25.89-1.96,2.12-3.89,2.16-6.04-1.36,5.14-5.85,8.78-8.43,13.42-1.15,2.07-1.93,4.36-3.26,6.33-2.36,3.49-6.32,5.54-10.42,6.17-.97.15-5.53-.4-5.99.1-1.13,1.24,2.77,3.67,3.54,4.07,2.1,1.08,4.57,1.49,6.9,1.11Z"/>
  <path class="cls-2" d="M122.76,45.36c-.42-1.38-.4-2.85-.5-4.29-.19-2.62-.85-5.31-2.57-7.3,1.47.97,2.94,1.96,4.17,3.22s2.21,2.83,2.48,4.56c.16,1.01.07,2.04.24,3.05.23,1.36.92,2.61,1.81,3.67,1.51,1.8,1.29,4.17-1.31,2.44-1.87-1.25-3.65-3.16-4.31-5.35Z"/>
  <path class="cls-2" d="M132.26,40.72c.19-2.52.63-4.93.95-7.39.34-2.61.56-5.29.65-7.99.1-2.99-.63-5.47-.71-8.76.9,6.64,3.44,11.8,5.27,17.63.36,1.15.7,2.35.82,3.68.29,3.15-.74,6.32-2.11,7.97-.86,1.04-3.12,2.96-4.15,2.16s-.85-5.53-.72-7.3Z"/>
  <path class="cls-2" d="M148.28,34.17c-.27-.79-.66-1.55-.89-2.35-.61-2.15.07-4.61,1.7-6.14-.28.83-.1,1.75.23,2.57s.78,1.57,1.08,2.4c.7,1.9.66,4.91-.53,6.65-1.63,2.39-1.19-1.89-1.6-3.11Z"/>
  <path class="cls-2" d="M141.51,22.1c-1.18,1.78-1.35,4.07-1.03,6.18s1.1,4.12,1.7,6.17,1.04,4.21.67,6.31c-.33,1.83-1.26,3.5-2.38,4.98s-2.45,2.78-3.71,4.15c-.19.21-.39.51-.22.74.07.1.2.15.32.18,1.54.46,3.24.14,4.65-.63s2.56-1.94,3.54-3.21c.52-.68,1-1.4,1.31-2.21.57-1.47.51-3.13.18-4.67s-.95-3.01-1.48-4.5c-.66-1.86-1.2-3.77-1.6-5.7-.27-1.35-.48-2.73-.33-4.1.18-1.67.86-3.23,1.53-4.76.28-.65.65-1.27.93-1.9-1.44.01-3.33,1.85-4.07,2.98Z"/>
</svg>